<svg width="24" height="24" viewBox="0 0 24 24" fill="none" xmlns="http://www.w3.org/2000/svg">
<path d="M12 24C18.6274 24 24 18.6274 24 12C24 5.37258 18.6274 0 12 0C5.37258 0 0 5.37258 0 12C0 18.6274 5.37258 24 12 24Z" fill="#FF2741"/>
<path d="M16.1294 13.8701C16.1294 14.0201 16.1294 14.1701 16.1294 14.3201C16.1294 15.1401 16.1294 15.1301 16.9494 15.1201C17.1994 15.1201 17.2794 15.0501 17.2694 14.7901C17.2494 14.1801 17.2694 13.5601 17.2694 12.9501C17.2694 12.8001 17.2694 12.6901 17.4794 12.6901C17.9694 12.7001 18.4594 12.6901 18.9494 12.6901C19.1894 12.6901 19.3094 12.8301 19.3294 13.0701C19.4194 14.0201 19.3994 14.0501 18.4694 14.1201C18.4394 14.1201 18.4194 14.1201 18.3894 14.1201C18.2894 14.1201 18.2494 14.1601 18.2694 14.2701C18.3394 14.8001 18.6594 15.1001 19.1994 15.0801C19.3194 15.0801 19.4494 15.0801 19.5694 15.0501C20.1194 14.9801 20.4594 14.6201 20.4694 14.0701C20.4794 13.5801 20.4794 13.0901 20.4694 12.6001C20.4494 12.0301 20.1294 11.6101 19.5694 11.5601C19.1894 11.5201 19.1194 11.3801 19.1594 11.0601C19.1694 10.9801 19.1594 10.9001 19.1594 10.8201C19.1394 9.86012 18.6794 9.40012 17.7194 9.39012C17.4994 9.39012 17.2394 9.45012 17.2694 9.07012C17.2694 8.94012 17.1394 8.96012 17.0494 8.96012C16.8594 8.96012 16.6694 8.96012 16.4794 8.96012C16.2894 8.96012 16.1194 8.94012 16.1494 9.22012C16.1694 9.41012 16.0094 9.41012 15.8994 9.38012C15.4694 9.30012 15.3394 9.49012 15.4094 9.89012C15.4294 10.0101 15.4194 10.1401 15.4094 10.2601C15.3894 10.4801 15.4894 10.5401 15.6994 10.5301C15.8394 10.5301 16.0594 10.4501 16.1194 10.5801C16.2294 10.8401 16.1994 11.1501 16.1394 11.4201C16.0994 11.6101 15.8594 11.5101 15.7094 11.5101C15.0294 11.5201 15.0194 11.5101 15.0294 12.0801C15.0294 12.7501 14.9294 12.6501 15.6094 12.6601C15.7094 12.6601 15.7994 12.6701 15.8994 12.6601C16.1194 12.6301 16.1794 12.7301 16.1694 12.9401C16.1494 13.2401 16.1694 13.5401 16.1694 13.8401L16.1294 13.8701ZM13.1894 15.1101C13.6894 15.1101 14.1994 15.0901 14.6994 15.1101C15.0194 15.1301 15.0794 15.0101 15.0794 14.7201C15.0594 13.9801 15.0794 13.9701 14.3294 13.9701C14.0294 13.9701 13.9694 13.8701 13.9694 13.5901C13.9794 12.6901 13.9794 11.7901 13.9694 10.8901C13.9694 10.6301 14.0294 10.5001 14.3094 10.5501C14.6294 10.6101 14.7194 10.4501 14.6794 10.1601C14.6694 10.0501 14.6594 9.94012 14.6794 9.83012C14.7294 9.50012 14.6294 9.37012 14.2694 9.39012C13.7994 9.42012 13.3194 9.39012 12.8394 9.39012C12.0794 9.39012 12.0894 9.39012 12.0894 10.1701C12.0894 10.4501 12.1694 10.5801 12.4594 10.5301C12.7194 10.4901 12.8094 10.5801 12.8094 10.8601C12.7894 11.7701 12.7894 12.6801 12.8094 13.6001C12.8094 13.9101 12.6894 14.0001 12.4294 13.9401C11.9194 13.8401 11.6394 14.0601 11.5194 14.5401C11.4994 14.6201 11.4594 14.6901 11.4194 14.7601C11.2394 15.0501 11.3794 15.0901 11.6494 15.0801C12.1694 15.0701 12.6794 15.0801 13.1994 15.0801L13.1894 15.1101ZM4.84942 14.2001C4.93942 14.4001 5.03942 14.6001 5.09942 14.8001C5.17942 15.0501 5.32942 15.1201 5.58942 15.1101C6.38942 15.0901 6.72942 14.7701 6.72942 13.9601C6.72942 12.5701 6.72942 11.1801 6.72942 9.79012C6.72942 9.02012 6.72942 9.03012 5.93942 9.04012C5.67942 9.04012 5.58942 9.11012 5.58942 9.39012C5.59942 10.7001 5.58942 12.0001 5.58942 13.3101C5.58942 13.8235 5.34275 14.1201 4.84942 14.2001ZM10.1194 11.6701C9.93942 12.1001 9.76942 12.5201 9.58942 12.9501C9.47942 13.2201 9.55942 13.4601 9.81942 13.4901C10.2594 13.5501 10.7294 13.5901 11.1594 13.4901C11.4294 13.4301 11.4394 13.0001 11.5694 12.7401C11.5894 12.7101 11.5894 12.6701 11.5994 12.6101C11.4994 12.6101 11.4294 12.5901 11.3494 12.5901C11.0294 12.5768 10.9361 12.4201 11.0694 12.1201C11.2894 11.6201 11.5194 11.1101 11.7594 10.5601C11.4694 10.5601 11.2594 10.5501 11.0394 10.5601C10.6994 10.5801 10.6594 10.4501 10.8094 10.1701C10.9094 9.98012 10.9894 9.77012 11.0694 9.57012C11.3394 8.97012 11.3394 8.99012 10.6694 8.96012C10.2894 8.94012 10.1094 9.06012 9.97942 9.41012C9.83942 9.81012 9.64942 10.1801 9.46942 10.5701C9.06942 11.4501 9.11942 11.5501 10.1094 11.6601L10.1194 11.6701ZM4.00942 14.5701C4.30942 14.2301 4.43942 13.8701 4.53942 13.5101C4.72942 12.8101 4.73942 12.0901 4.77942 11.3701C4.83942 10.5101 4.81942 10.5201 3.95942 10.5601C3.75942 10.5701 3.70942 10.6401 3.69942 10.8201C3.65942 11.4701 3.58942 12.1201 3.55942 12.7701C3.54942 13.0101 3.38942 13.2301 3.51942 13.4801C3.69942 13.8201 3.82942 14.1701 4.00942 14.5701V14.5701ZM8.31942 14.5701C8.48942 14.1901 8.63942 13.8701 8.78942 13.5401C8.83942 13.4301 8.89942 13.3201 8.86942 13.1901C8.73942 12.5901 8.73942 11.9801 8.68942 11.3701C8.61942 10.5101 8.61942 10.5201 7.74942 10.5601C7.52942 10.5601 7.47942 10.6401 7.49942 10.8501C7.55942 11.4901 7.57942 12.1201 7.65942 12.7601C7.72942 13.3901 7.86942 14.0101 8.31942 14.5801V14.5701ZM9.97942 15.1101C10.5294 15.2801 10.8594 14.9601 11.0194 14.3701C11.0294 14.3201 11.0594 14.2701 11.0894 14.2201C11.1994 14.0301 11.1494 13.9601 10.9294 13.9601C10.5094 13.9601 10.0894 14.0001 9.66942 13.9201C9.44942 13.8801 9.36942 13.9801 9.27942 14.1601C8.82942 15.1101 8.81942 15.1101 9.97942 15.1101ZM19.3394 10.1501C19.3394 10.4168 19.4594 10.5501 19.6994 10.5501C20.1894 10.5501 20.4794 10.3301 20.4794 9.97012C20.4794 9.66012 20.2194 9.40012 19.9094 9.41012C19.5494 9.41012 19.3494 9.68012 19.3394 10.1501Z" fill="#FE2841"/>
<path d="M1.5 20.2102C1.63 20.2802 1.61 20.4202 1.64 20.5302C1.96 21.4302 2.56 22.0402 3.47 22.3602C3.58 22.4002 3.72 22.3802 3.79 22.5002C3.1 22.5002 2.4 22.5002 1.71 22.5002C1.53 22.5002 1.5 22.4702 1.5 22.2902C1.51 21.6002 1.5 20.9002 1.5 20.2102Z" fill="#FEFBFB"/>
<path d="M16.1295 13.87C16.1295 13.57 16.1195 13.27 16.1295 12.97C16.1395 12.76 16.0795 12.66 15.8595 12.69C15.7695 12.7 15.6695 12.69 15.5695 12.69C14.8895 12.68 14.9895 12.78 14.9895 12.11C14.9895 11.55 14.9895 11.55 15.6695 11.54C15.8195 11.54 16.0595 11.64 16.0995 11.45C16.1595 11.18 16.1895 10.87 16.0795 10.61C16.0295 10.48 15.7995 10.55 15.6595 10.56C15.4495 10.56 15.3495 10.51 15.3695 10.29C15.3795 10.17 15.3895 10.04 15.3695 9.92004C15.3095 9.52004 15.4295 9.33004 15.8595 9.41004C15.9695 9.43004 16.1295 9.44004 16.1095 9.25004C16.0795 8.97004 16.2595 8.98004 16.4395 8.99004C16.6295 8.99004 16.8195 8.99004 17.0095 8.99004C17.0995 8.99004 17.2395 8.97004 17.2295 9.10004C17.1995 9.48004 17.4595 9.41004 17.6795 9.42004C18.6395 9.43004 19.0995 9.89004 19.1195 10.85C19.1195 10.93 19.1195 11.01 19.1195 11.09C19.0795 11.41 19.1495 11.56 19.5295 11.59C20.0895 11.64 20.4095 12.06 20.4295 12.63C20.4495 13.12 20.4495 13.61 20.4295 14.1C20.4195 14.65 20.0795 15.01 19.5295 15.08C19.4095 15.1 19.2895 15.1 19.1595 15.11C18.6295 15.12 18.2995 14.83 18.2295 14.3C18.2195 14.19 18.2495 14.15 18.3495 14.15C18.3795 14.15 18.3995 14.15 18.4295 14.15C19.3595 14.07 19.3695 14.05 19.2895 13.1C19.2695 12.85 19.1495 12.72 18.9095 12.72C18.4195 12.72 17.9295 12.72 17.4395 12.72C17.2295 12.72 17.2295 12.83 17.2295 12.98C17.2295 13.59 17.2195 14.21 17.2295 14.82C17.2295 15.07 17.1595 15.14 16.9095 15.15C16.0895 15.16 16.0895 15.17 16.0895 14.35C16.0895 14.2 16.0895 14.05 16.0895 13.9L16.1295 13.87ZM17.2695 11.07C17.2395 11.35 17.2095 11.57 17.6495 11.58C18.1495 11.58 17.9995 11.28 18.0295 11.03C18.0595 10.73 18.0095 10.57 17.6295 10.55C17.1495 10.53 17.2895 10.83 17.2695 11.07V11.07Z" fill="#FEFBFC"/>
<path d="M13.1792 15.1002C12.6592 15.1002 12.1492 15.1002 11.6292 15.1002C11.3692 15.1002 11.2192 15.0702 11.3992 14.7802C11.4392 14.7102 11.4792 14.6402 11.4992 14.5602C11.6192 14.0802 11.9092 13.8602 12.4092 13.9602C12.6692 14.0102 12.7992 13.9202 12.7892 13.6202C12.7692 12.7102 12.7692 11.8002 12.7892 10.8802C12.7892 10.6002 12.6992 10.5102 12.4392 10.5502C12.1492 10.6002 12.0692 10.4702 12.0692 10.1902C12.0692 9.41021 12.0692 9.41021 12.8192 9.41021C13.2992 9.41021 13.7692 9.44021 14.2492 9.41021C14.6092 9.38021 14.7092 9.52021 14.6592 9.85021C14.6392 9.96021 14.6492 10.0702 14.6592 10.1802C14.6992 10.4702 14.6092 10.6302 14.2892 10.5702C14.0092 10.5202 13.9492 10.6602 13.9492 10.9102C13.9592 11.8102 13.9592 12.7102 13.9492 13.6102C13.9492 13.8802 14.0092 13.9902 14.3092 13.9902C15.0492 13.9902 15.0392 13.9902 15.0592 14.7402C15.0592 15.0402 14.9992 15.1502 14.6792 15.1302C14.1792 15.1002 13.6692 15.1302 13.1692 15.1302L13.1792 15.1002Z" fill="#FEF9FA"/>
<path d="M4.83984 14.2001C5.33318 14.1201 5.57984 13.8234 5.57984 13.3101C5.57984 12.0001 5.58984 10.7001 5.57984 9.39009C5.57984 9.11009 5.66984 9.05009 5.92984 9.04009C6.71984 9.04009 6.71984 9.02009 6.71984 9.79009C6.71984 11.1801 6.71984 12.5701 6.71984 13.9601C6.71984 14.7701 6.37984 15.0901 5.57984 15.1101C5.31984 15.1101 5.16984 15.0401 5.08984 14.8001C5.01984 14.6001 4.91984 14.4001 4.83984 14.2001Z" fill="#FEFAFA"/>
<path d="M10.1107 11.6601C9.12069 11.5501 9.07069 11.4601 9.47069 10.5701C9.64069 10.1901 9.84069 9.81012 9.98069 9.41012C10.1007 9.06012 10.2907 8.94012 10.6707 8.96012C11.3307 8.99012 11.3407 8.96012 11.0707 9.57012C10.9807 9.77012 10.9107 9.97012 10.8107 10.1701C10.6707 10.4401 10.7107 10.5801 11.0407 10.5601C11.2607 10.5501 11.4707 10.5601 11.7607 10.5601C11.5207 11.1101 11.2907 11.6101 11.0707 12.1201C10.9374 12.4268 11.0307 12.5835 11.3507 12.5901C11.4307 12.5901 11.5107 12.6001 11.6007 12.6101C11.5907 12.6701 11.5907 12.7101 11.5707 12.7401C11.4307 13.0001 11.4207 13.4301 11.1607 13.4901C10.7407 13.5901 10.2707 13.5401 9.82069 13.4901C9.55069 13.4601 9.47069 13.2101 9.59069 12.9501C9.77069 12.5301 9.94069 12.1101 10.1207 11.6701L10.1107 11.6601Z" fill="#FEFBFB"/>
<path d="M3.99966 14.5602C3.81966 14.1602 3.67966 13.8102 3.50966 13.4702C3.37966 13.2102 3.53966 12.9902 3.54966 12.7602C3.57966 12.1102 3.64966 11.4602 3.68966 10.8102C3.69966 10.6302 3.74966 10.5602 3.94966 10.5502C4.80966 10.5102 4.82966 10.5002 4.76966 11.3602C4.71966 12.0802 4.71966 12.8002 4.52966 13.5002C4.42966 13.8602 4.30966 14.2202 3.99966 14.5602V14.5602Z" fill="#FEF9FA"/>
<path d="M8.31036 14.5602C7.85036 13.9902 7.72036 13.3702 7.65036 12.7402C7.58036 12.1102 7.55036 11.4702 7.49036 10.8302C7.47036 10.6202 7.52036 10.5502 7.74036 10.5402C8.61036 10.5002 8.61036 10.4902 8.68036 11.3502C8.73036 11.9602 8.72036 12.5702 8.86036 13.1702C8.89036 13.3002 8.83036 13.4102 8.78036 13.5202C8.63036 13.8502 8.48036 14.1802 8.31036 14.5502V14.5602Z" fill="#FEFAFA"/>
<path d="M9.96096 15.1001C8.80096 15.1001 8.81096 15.1001 9.26096 14.1501C9.34096 13.9701 9.42096 13.8701 9.65096 13.9101C10.061 13.9901 10.491 13.9501 10.911 13.9501C11.131 13.9501 11.181 14.0101 11.071 14.2101C11.041 14.2601 11.021 14.3101 11.001 14.3601C10.851 14.9501 10.521 15.2701 9.96096 15.1001Z" fill="#FEFAFB"/>
<path d="M19.3203 10.1502C19.3203 9.68016 19.5303 9.41016 19.8903 9.41016C20.2003 9.41016 20.4603 9.66016 20.4603 9.97016C20.4603 10.3302 20.1703 10.5502 19.6803 10.5502C19.4403 10.5502 19.3203 10.4168 19.3203 10.1502Z" fill="#FEF4F5"/>
</svg>
